#N canvas 0 0 749 723 12;
#N canvas 0 28 749 723 intake 0;
#X obj 170 230 oscparse;
#X obj 168 141 loadbang;
#X obj 173 280 list trim;
#X obj 291 342 route openbci;
#X obj 292 232 oscparse;
#X obj 290 143 loadbang;
#X obj 295 282 list trim;
#X obj 416 230 oscparse;
#X obj 414 141 loadbang;
#X obj 419 280 list trim;
#X obj 538 232 oscparse;
#X obj 536 143 loadbang;
#X obj 541 282 list trim;
#X obj 293 370 s fromsensors;
#X obj 538 203 netreceive -u -b;
#X obj 416 201 netreceive -u -b;
#X obj 292 203 netreceive -u -b;
#X obj 170 201 netreceive -u -b;
#X msg 169 166 listen 2000;
#X msg 291 168 listen 2001;
#X msg 415 166 listen 2002;
#X msg 538 166 listen 2003;
#X connect 0 0 2 0;
#X connect 1 0 18 0;
#X connect 2 0 3 0;
#X connect 3 0 13 0;
#X connect 4 0 6 0;
#X connect 5 0 19 0;
#X connect 6 0 3 0;
#X connect 7 0 9 0;
#X connect 8 0 20 0;
#X connect 9 0 3 0;
#X connect 10 0 12 0;
#X connect 11 0 21 0;
#X connect 12 0 3 0;
#X connect 14 0 10 0;
#X connect 15 0 7 0;
#X connect 16 0 4 0;
#X connect 17 0 0 0;
#X connect 18 0 17 0;
#X connect 19 0 16 0;
#X connect 20 0 15 0;
#X connect 21 0 14 0;
#X restore 8 10 pd intake;
#X obj 318 27 r fromsensors;
#X obj 317 52 route focus;
#X obj 318 92 tgl 100 0 empty empty focusting--X=yes 0 -10 0 12 #fcfcfc #000000 #000000 0 1;
#X obj 103 118 r fromsensors;
#X obj 399 306 r fromsensors;
#X obj 393 345 route time-series-filtered;
#X obj 389 394 route ch1 ch2 ch3 ch4 ch5 ch6 ch7 ch8;
#X obj 392 492 vsl 20 170 -100 100 0 0 empty empty empty 0 -9 0 12 #fcfcfc #000000 #000000 0 1;
#X obj 415 491 vsl 20 170 -100 100 0 0 empty empty empty 0 -9 0 12 #fcfcfc #000000 #000000 0 1;
#X obj 437 491 vsl 20 170 -100 100 0 0 empty empty empty 0 -9 0 12 #fcfcfc #000000 #000000 0 1;
#X obj 460 490 vsl 20 170 -100 100 0 0 empty empty empty 0 -9 0 12 #fcfcfc #000000 #000000 0 1;
#X obj 483 488 vsl 20 170 -100 100 0 0 empty empty empty 0 -9 0 12 #fcfcfc #000000 #000000 0 1;
#X obj 506 487 vsl 20 170 -100 100 0 0 empty empty empty 0 -9 0 12 #fcfcfc #000000 #000000 0 1;
#X obj 528 487 vsl 20 170 -100 100 0 0 empty empty empty 0 -9 0 12 #fcfcfc #000000 #000000 0 1;
#X obj 551 486 vsl 20 170 -100 100 0 0 empty empty empty 0 -9 0 12 #fcfcfc #000000 #000000 0 1;
#X obj 576 488 vsl 20 170 -100 100 0 0 empty empty empty 0 -9 0 12 #fcfcfc #000000 #000000 0 1;
#X obj 606 488 vsl 20 170 -100 100 0 0 empty empty empty 0 -9 0 12 #fcfcfc #000000 #000000 0 1;
#X obj 392 444 unpack 0 0 0 0 0 0 0 0 0 0;
#X obj 103 138 route accelerometer;
#X obj 103 158 route x y z;
#X obj 103 179 vsl 20 170 0 1 0 0 empty empty empty 0 -9 0 12 #fcfcfc #000000 #000000 0 1;
#X obj 123 179 vsl 20 170 0 1 0 0 empty empty empty 0 -9 0 12 #fcfcfc #000000 #000000 0 1;
#X obj 143 179 vsl 20 170 0 1 0 0 empty empty empty 0 -9 0 12 #fcfcfc #000000 #000000 0 1;
#X obj 88 660 ctlout;
#X msg 70 589 \$1 1 1;
#X obj 73 370 + 1;
#X obj 74 396 / 2, f 4;
#X obj 138 372 + 1;
#X obj 139 398 / 2, f 4;
#X obj 190 370 + 1;
#X obj 191 396 / 2, f 4;
#X msg 129 590 \$1 2 1;
#X msg 191 592 \$1 3 1;
#X text 162 660 now mapping to cc 1 2 3 ch 1;
#X obj 51 478 clip 0 127;
#X obj 55 511 int;
#X obj 59 538 change;
#X obj 138 478 clip 0 127;
#X obj 142 511 int;
#X obj 146 538 change;
#X obj 221 479 clip 0 127;
#X obj 225 512 int;
#X obj 229 539 change;
#X obj 76 424 * 128;
#X obj 141 426 * 128;
#X obj 193 424 * 128;
#X text 505 8 last edit Tue 15 2025 3:35 pm BKK;
#X connect 1 0 2 0;
#X connect 2 0 3 0;
#X connect 4 0 19 0;
#X connect 5 0 6 0;
#X connect 6 0 7 0;
#X connect 7 0 18 0;
#X connect 18 0 8 0;
#X connect 18 1 9 0;
#X connect 18 2 10 0;
#X connect 18 3 11 0;
#X connect 18 4 12 0;
#X connect 18 5 13 0;
#X connect 18 6 14 0;
#X connect 18 7 15 0;
#X connect 18 8 16 0;
#X connect 18 9 17 0;
#X connect 19 0 20 0;
#X connect 20 0 21 0;
#X connect 20 1 22 0;
#X connect 20 2 23 0;
#X connect 21 0 26 0;
#X connect 22 0 28 0;
#X connect 23 0 30 0;
#X connect 25 0 24 0;
#X connect 26 0 27 0;
#X connect 27 0 44 0;
#X connect 28 0 29 0;
#X connect 29 0 45 0;
#X connect 30 0 31 0;
#X connect 31 0 46 0;
#X connect 32 0 24 0;
#X connect 33 0 24 0;
#X connect 35 0 36 0;
#X connect 36 0 37 0;
#X connect 37 0 25 0;
#X connect 38 0 39 0;
#X connect 39 0 40 0;
#X connect 40 0 32 0;
#X connect 41 0 42 0;
#X connect 42 0 43 0;
#X connect 43 0 33 0;
#X connect 44 0 35 0;
#X connect 45 0 38 0;
#X connect 46 0 41 0;
