#N canvas 0 0 1364 723 12;
#N canvas 0 0 749 723 intake 0;
#X obj 170 230 oscparse;
#X obj 168 141 loadbang;
#X obj 173 280 list trim;
#X obj 291 342 route openbci;
#X obj 292 232 oscparse;
#X obj 290 143 loadbang;
#X obj 295 282 list trim;
#X obj 416 230 oscparse;
#X obj 414 141 loadbang;
#X obj 419 280 list trim;
#X obj 538 232 oscparse;
#X obj 536 143 loadbang;
#X obj 541 282 list trim;
#X obj 293 370 s fromsensors;
#X obj 538 203 netreceive -u -b;
#X obj 416 201 netreceive -u -b;
#X obj 292 203 netreceive -u -b;
#X obj 170 201 netreceive -u -b;
#X msg 169 166 listen 2000;
#X msg 291 168 listen 2001;
#X msg 415 166 listen 2002;
#X msg 538 166 listen 2003;
#X connect 0 0 2 0;
#X connect 1 0 18 0;
#X connect 2 0 3 0;
#X connect 3 0 13 0;
#X connect 4 0 6 0;
#X connect 5 0 19 0;
#X connect 6 0 3 0;
#X connect 7 0 9 0;
#X connect 8 0 20 0;
#X connect 9 0 3 0;
#X connect 10 0 12 0;
#X connect 11 0 21 0;
#X connect 12 0 3 0;
#X connect 14 0 10 0;
#X connect 15 0 7 0;
#X connect 16 0 4 0;
#X connect 17 0 0 0;
#X connect 18 0 17 0;
#X connect 19 0 16 0;
#X connect 20 0 15 0;
#X connect 21 0 14 0;
#X restore 8 10 pd intake;
#X obj 8 35 r fromsensors;
#X obj 275 9 r fromsensors;
#X obj 275 37 route time-series-filtered;
#X obj 275 63 route ch1 ch2 ch3 ch4 ch5 ch6 ch7 ch8;
#X obj 275 92 unpack 0 0 0 0 0 0 0 0 0 0;
#X obj 8 55 route accelerometer;
#X obj 8 75 route x y z;
#X obj 8 96 vsl 20 170 0 1 0 0 empty empty empty 0 -9 0 12 #fcfcfc #000000 #000000 0 1;
#X obj 28 96 vsl 20 170 0 1 0 0 empty empty empty 0 -9 0 12 #fcfcfc #000000 #000000 0 1;
#X obj 48 96 vsl 20 170 0 1 0 0 empty empty empty 0 -9 0 12 #fcfcfc #000000 #000000 0 1;
#X obj 17 649 ctlout;
#X obj 8 276 + 1;
#X obj 8 296 / 2, f 4;
#X obj 28 339 + 1;
#X obj 28 359 / 2, f 4;
#X obj 48 277 + 1;
#X obj 48 297 / 2, f 4;
#X obj 8 406 clip 0 127;
#X obj 8 518 int;
#X obj 8 545 change;
#X obj 29 431 clip 0 127;
#X obj 29 484 int;
#X obj 54 545 change;
#X obj 48 458 clip 0 127;
#X obj 47 519 int;
#X obj 100 545 change;
#X obj 8 316 * 128;
#X obj 28 379 * 128;
#X obj 48 317 * 128;
#X obj 8 592 list append 1;
#X obj 8 620 list trim;
#X obj 8 572 list append 1;
#X obj 108 592 list append 1;
#X obj 108 612 list trim;
#X obj 208 592 list append 1;
#X obj 208 612 list trim;
#X obj 612 43 r fromsensors;
#X obj 606 82 route band-power;
#X obj 612 122 list split 1;
#X obj 613 149 float;
#X obj 612 174 list append;
#X obj 612 208 route 0 1 2 3 4 5 6 7, f 48;
#X obj 610 339 vsl 10 50 0 100 0 0 empty empty empty 0 -9 0 12 #fcfcfc #000000 #000000 0 1;
#X obj 620 339 vsl 10 50 0 100 0 0 empty empty empty 0 -9 0 12 #fcfcfc #000000 #000000 0 1;
#X obj 630 339 vsl 10 50 0 100 0 0 empty empty empty 0 -9 0 12 #fcfcfc #000000 #000000 0 1;
#X obj 640 339 vsl 10 50 0 100 0 0 empty empty empty 0 -9 0 12 #fcfcfc #000000 #000000 0 1;
#X obj 650 339 vsl 10 50 0 100 0 0 empty empty empty 0 -9 0 12 #fcfcfc #000000 #000000 0 1;
#X obj 610 276 unpack 0 0 0 0 0, f 7;
#X obj 667 340 vsl 10 50 0 100 0 0 empty empty empty 0 -9 0 12 #fcfcfc #000000 #000000 0 1;
#X obj 677 340 vsl 10 50 0 100 0 0 empty empty empty 0 -9 0 12 #fcfcfc #000000 #000000 0 1;
#X obj 687 340 vsl 10 50 0 100 0 0 empty empty empty 0 -9 0 12 #fcfcfc #000000 #000000 0 1;
#X obj 697 340 vsl 10 50 0 100 0 0 empty empty empty 0 -9 0 12 #fcfcfc #000000 #000000 0 1;
#X obj 707 340 vsl 10 50 0 100 0 0 empty empty empty 0 -9 0 12 #fcfcfc #000000 #000000 0 1;
#X obj 667 277 unpack 0 0 0 0 0, f 7;
#X obj 725 338 vsl 10 50 0 100 0 0 empty empty empty 0 -9 0 12 #fcfcfc #000000 #000000 0 1;
#X obj 735 338 vsl 10 50 0 100 0 0 empty empty empty 0 -9 0 12 #fcfcfc #000000 #000000 0 1;
#X obj 745 338 vsl 10 50 0 100 0 0 empty empty empty 0 -9 0 12 #fcfcfc #000000 #000000 0 1;
#X obj 755 338 vsl 10 50 0 100 0 0 empty empty empty 0 -9 0 12 #fcfcfc #000000 #000000 0 1;
#X obj 765 338 vsl 10 50 0 100 0 0 empty empty empty 0 -9 0 12 #fcfcfc #000000 #000000 0 1;
#X obj 725 275 unpack 0 0 0 0 0, f 7;
#X obj 782 339 vsl 10 50 0 100 0 0 empty empty empty 0 -9 0 12 #fcfcfc #000000 #000000 0 1;
#X obj 792 339 vsl 10 50 0 100 0 0 empty empty empty 0 -9 0 12 #fcfcfc #000000 #000000 0 1;
#X obj 802 339 vsl 10 50 0 100 0 0 empty empty empty 0 -9 0 12 #fcfcfc #000000 #000000 0 1;
#X obj 812 339 vsl 10 50 0 100 0 0 empty empty empty 0 -9 0 12 #fcfcfc #000000 #000000 0 1;
#X obj 822 339 vsl 10 50 0 100 0 0 empty empty empty 0 -9 0 12 #fcfcfc #000000 #000000 0 1;
#X obj 782 276 unpack 0 0 0 0 0, f 7;
#X obj 841 339 vsl 10 50 0 100 0 0 empty empty empty 0 -9 0 12 #fcfcfc #000000 #000000 0 1;
#X obj 851 339 vsl 10 50 0 100 0 0 empty empty empty 0 -9 0 12 #fcfcfc #000000 #000000 0 1;
#X obj 861 339 vsl 10 50 0 100 0 0 empty empty empty 0 -9 0 12 #fcfcfc #000000 #000000 0 1;
#X obj 871 339 vsl 10 50 0 100 0 0 empty empty empty 0 -9 0 12 #fcfcfc #000000 #000000 0 1;
#X obj 881 339 vsl 10 50 0 100 0 0 empty empty empty 0 -9 0 12 #fcfcfc #000000 #000000 0 1;
#X obj 841 276 unpack 0 0 0 0 0, f 7;
#X obj 898 340 vsl 10 50 0 100 0 0 empty empty empty 0 -9 0 12 #fcfcfc #000000 #000000 0 1;
#X obj 908 340 vsl 10 50 0 100 0 0 empty empty empty 0 -9 0 12 #fcfcfc #000000 #000000 0 1;
#X obj 918 340 vsl 10 50 0 100 0 0 empty empty empty 0 -9 0 12 #fcfcfc #000000 #000000 0 1;
#X obj 928 340 vsl 10 50 0 100 0 0 empty empty empty 0 -9 0 12 #fcfcfc #000000 #000000 0 1;
#X obj 938 340 vsl 10 50 0 100 0 0 empty empty empty 0 -9 0 12 #fcfcfc #000000 #000000 0 1;
#X obj 898 277 unpack 0 0 0 0 0, f 7;
#X obj 956 338 vsl 10 50 0 100 0 0 empty empty empty 0 -9 0 12 #fcfcfc #000000 #000000 0 1;
#X obj 966 338 vsl 10 50 0 100 0 0 empty empty empty 0 -9 0 12 #fcfcfc #000000 #000000 0 1;
#X obj 976 338 vsl 10 50 0 100 0 0 empty empty empty 0 -9 0 12 #fcfcfc #000000 #000000 0 1;
#X obj 986 338 vsl 10 50 0 100 0 0 empty empty empty 0 -9 0 12 #fcfcfc #000000 #000000 0 1;
#X obj 996 338 vsl 10 50 0 100 0 0 empty empty empty 0 -9 0 12 #fcfcfc #000000 #000000 0 1;
#X obj 956 275 unpack 0 0 0 0 0, f 7;
#X obj 1013 339 vsl 10 50 0 100 0 0 empty empty empty 0 -9 0 12 #fcfcfc #000000 #000000 0 1;
#X obj 1023 339 vsl 10 50 0 100 0 0 empty empty empty 0 -9 0 12 #fcfcfc #000000 #000000 0 1;
#X obj 1033 339 vsl 10 50 0 100 0 0 empty empty empty 0 -9 0 12 #fcfcfc #000000 #000000 0 1;
#X obj 1043 339 vsl 10 50 0 100 0 0 empty empty empty 0 -9 0 12 #fcfcfc #000000 #000000 0 1;
#X obj 1053 339 vsl 10 50 0 100 0 0 empty empty empty 0 -9 0 12 #fcfcfc #000000 #000000 0 1;
#X obj 1013 276 unpack 0 0 0 0 0, f 7;
#X obj 1132 419 vsl 10 50 0 100 0 0 empty empty empty 0 -9 0 12 #fcfcfc #000000 #000000 0 1;
#X obj 1142 419 vsl 10 50 0 100 0 0 empty empty empty 0 -9 0 12 #fcfcfc #000000 #000000 0 1;
#X obj 1152 419 vsl 10 50 0 100 0 0 empty empty empty 0 -9 0 12 #fcfcfc #000000 #000000 0 1;
#X obj 1162 419 vsl 10 50 0 100 0 0 empty empty empty 0 -9 0 12 #fcfcfc #000000 #000000 0 1;
#X obj 1172 419 vsl 10 50 0 100 0 0 empty empty empty 0 -9 0 12 #fcfcfc #000000 #000000 0 1;
#X obj 1064 419 unpack 0 0 0 0 0, f 7;
#X obj 610 446 spigot;
#X obj 667 447 spigot;
#X obj 723 447 spigot;
#X obj 780 448 spigot;
#X obj 839 447 spigot;
#X obj 896 448 spigot;
#X obj 952 448 spigot;
#X obj 1009 449 spigot;
#X obj 789 94 hradio 20 1 0 8 empty empty empty 0 -10 0 12 #fcfcfc #000000 #000000 0;
#X obj 642 411 == 0;
#X obj 693 412 == 1;
#X obj 745 410 == 2;
#X obj 797 411 == 3;
#X obj 856 412 == 4;
#X obj 907 413 == 5;
#X obj 960 412 == 6;
#X obj 1011 413 == 7;
#X floatatom 836 114 5 0 0 0 - - - 36;
#X obj 648 678 ctlout;
#X obj 634 594 list append 1;
#X obj 634 622 list trim;
#X obj 748 587 list append 1;
#X obj 748 615 list trim;
#X obj 860 591 list append 1;
#X obj 860 619 list trim;
#X obj 975 590 list append 1;
#X obj 975 618 list trim;
#X obj 1087 594 list append 1;
#X obj 1087 622 list trim;
#X obj 630 491 clip 0 127;
#X obj 629 514 int;
#X obj 629 537 change;
#X obj 749 485 clip 0 127;
#X obj 748 508 int;
#X obj 748 531 change;
#X obj 857 487 clip 0 127;
#X obj 856 510 int;
#X obj 856 533 change;
#X obj 974 486 clip 0 127;
#X obj 973 509 int;
#X obj 973 532 change;
#X obj 1084 487 clip 0 127;
#X obj 1083 510 int;
#X obj 1083 533 change;
#X text 749 63 select channel for band power;
#X obj 143 160 line;
#X msg 142 121 \$1 1000, f 4;
#X obj 194 235 line;
#X msg 143 187 \$1 1000, f 4;
#X obj 186 162 line;
#X msg 188 122 \$1 1000, f 4;
#X obj 229 236 line;
#X msg 186 188 \$1 1000, f 4;
#X obj 232 162 line;
#X msg 231 122 \$1 1000, f 5;
#X obj 264 236 line;
#X msg 232 186 \$1 1000, f 4;
#X obj 282 163 line;
#X msg 282 122 \$1 1000, f 4;
#X obj 299 237 line;
#X msg 282 187 \$1 1000, f 4;
#X obj 325 163 line;
#X msg 324 122 \$1 1000, f 4;
#X obj 334 237 line;
#X msg 325 188 \$1 1000, f 4;
#X obj 367 162 line;
#X msg 366 122 \$1 1000, f 4;
#X obj 369 236 line;
#X msg 367 188 \$1 1000, f 4;
#X obj 409 164 line;
#X msg 408 122 \$1 1000, f 5;
#X obj 405 235 line;
#X msg 410 189 \$1 1000, f 4;
#X obj 459 161 line;
#X msg 459 122 \$1 1000, f 4;
#X obj 442 236 line;
#X msg 459 188 \$1 1000, f 4;
#X obj 503 164 line;
#X msg 502 122 \$1 1000, f 5;
#X obj 477 236 line;
#X msg 504 189 \$1 1000, f 4;
#X obj 553 161 line;
#X msg 553 122 \$1 1000, f 4;
#X obj 514 237 line;
#X msg 553 188 \$1 1000, f 4;
#X obj 108 572 list append 2;
#X obj 208 572 list append 3;
#X obj 632 561 list append 5;
#X obj 746 554 list append 6;
#X obj 858 558 list append 7;
#X obj 973 557 list append 8;
#X obj 1085 561 list append 9;
#X obj 145 272 + 1;
#X obj 145 297 / 2;
#X obj 145 323 * 127;
#X obj 251 364 vsl 20 170 0 127 0 0 empty empty empty 0 -9 0 12 #fcfcfc #000000 #000000 0 1;
#X obj 188 273 + 1;
#X obj 188 298 / 2;
#X obj 188 324 * 127;
#X obj 271 364 vsl 20 170 0 127 0 0 empty empty empty 0 -9 0 12 #fcfcfc #000000 #000000 0 1;
#X obj 231 272 + 1;
#X obj 231 297 / 2;
#X obj 231 323 * 127;
#X obj 291 364 vsl 20 170 0 127 0 0 empty empty empty 0 -9 0 12 #fcfcfc #000000 #000000 0 1;
#X obj 274 273 + 1;
#X obj 274 298 / 2;
#X obj 274 324 * 127;
#X obj 311 364 vsl 20 170 0 127 0 0 empty empty empty 0 -9 0 12 #fcfcfc #000000 #000000 0 1;
#X obj 318 273 + 1;
#X obj 318 298 / 2;
#X obj 318 324 * 127;
#X obj 331 364 vsl 20 170 0 127 0 0 empty empty empty 0 -9 0 12 #fcfcfc #000000 #000000 0 1;
#X obj 361 274 + 1;
#X obj 361 299 / 2;
#X obj 361 325 * 127;
#X obj 351 365 vsl 20 170 0 127 0 0 empty empty empty 0 -9 0 12 #fcfcfc #000000 #000000 0 1;
#X obj 404 273 + 1;
#X obj 404 298 / 2;
#X obj 404 324 * 127;
#X obj 371 364 vsl 20 170 0 127 0 0 empty empty empty 0 -9 0 12 #fcfcfc #000000 #000000 0 1;
#X obj 447 274 + 1;
#X obj 447 299 / 2;
#X obj 447 325 * 127;
#X obj 391 364 vsl 20 170 0 127 0 0 empty empty empty 0 -9 0 12 #fcfcfc #000000 #000000 0 1;
#X obj 489 276 + 1;
#X obj 489 301 / 2;
#X obj 489 327 * 127;
#X obj 411 364 vsl 20 170 0 127 0 0 empty empty empty 0 -9 0 12 #fcfcfc #000000 #000000 0 1;
#X obj 532 277 + 1;
#X obj 532 302 / 2;
#X obj 532 328 * 127;
#X obj 431 364 vsl 20 170 0 127 0 0 empty empty empty 0 -9 0 12 #fcfcfc #000000 #000000 0 1;
#X obj 97 904 ctlout;
#X obj 22 831 list append 1;
#X obj 22 859 list trim;
#X obj 136 824 list append 1;
#X obj 136 852 list trim;
#X obj 248 828 list append 1;
#X obj 248 856 list trim;
#X obj 363 827 list append 1;
#X obj 363 855 list trim;
#X obj 475 831 list append 1;
#X obj 475 859 list trim;
#X obj 18 728 clip 0 127;
#X obj 17 751 int;
#X obj 17 774 change;
#X obj 137 722 clip 0 127;
#X obj 136 745 int;
#X obj 136 768 change;
#X obj 245 724 clip 0 127;
#X obj 244 747 int;
#X obj 244 770 change;
#X obj 362 723 clip 0 127;
#X obj 361 746 int;
#X obj 361 769 change;
#X obj 472 724 clip 0 127;
#X obj 471 747 int;
#X obj 471 770 change;
#X obj 603 830 list append 1;
#X obj 603 858 list trim;
#X obj 717 823 list append 1;
#X obj 717 851 list trim;
#X obj 829 827 list append 1;
#X obj 829 855 list trim;
#X obj 944 826 list append 1;
#X obj 944 854 list trim;
#X obj 1056 830 list append 1;
#X obj 1056 858 list trim;
#X obj 599 727 clip 0 127;
#X obj 598 750 int;
#X obj 598 773 change;
#X obj 718 721 clip 0 127;
#X obj 717 744 int;
#X obj 717 767 change;
#X obj 826 723 clip 0 127;
#X obj 825 746 int;
#X obj 825 769 change;
#X obj 943 722 clip 0 127;
#X obj 942 745 int;
#X obj 942 768 change;
#X obj 1053 723 clip 0 127;
#X obj 1052 746 int;
#X obj 1052 769 change;
#X obj 20 798 list append 17;
#X obj 134 791 list append 18;
#X obj 246 795 list append 19;
#X obj 361 794 list append 20;
#X obj 473 798 list append 21;
#X obj 601 797 list append 22;
#X obj 715 790 list append 23;
#X obj 827 794 list append 24;
#X obj 942 793 list append 25;
#X obj 1054 797 list append 26;
#X text 1057 46 accel cc 1 2 3;
#X text 1022 68 band-power cc 5 6 7 8 9;
#X text 1001 93 time-filtered cc 17 18 19 20 21 22 23 24 25 26;
#X text 1103 6 last edit Tue 17 2025 3:30 pm BKK;
#X connect 1 0 6 0;
#X connect 2 0 3 0;
#X connect 3 0 4 0;
#X connect 4 0 5 0;
#X connect 5 0 143 0;
#X connect 5 1 147 0;
#X connect 5 2 151 0;
#X connect 5 3 155 0;
#X connect 5 4 159 0;
#X connect 5 5 163 0;
#X connect 5 6 167 0;
#X connect 5 7 171 0;
#X connect 5 8 175 0;
#X connect 5 9 179 0;
#X connect 6 0 7 0;
#X connect 7 0 8 0;
#X connect 7 1 9 0;
#X connect 7 2 10 0;
#X connect 8 0 12 0;
#X connect 9 0 14 0;
#X connect 10 0 16 0;
#X connect 12 0 13 0;
#X connect 13 0 27 0;
#X connect 14 0 15 0;
#X connect 15 0 28 0;
#X connect 16 0 17 0;
#X connect 17 0 29 0;
#X connect 18 0 19 0;
#X connect 19 0 20 0;
#X connect 20 0 32 0;
#X connect 21 0 22 0;
#X connect 22 0 23 0;
#X connect 23 0 182 0;
#X connect 24 0 25 0;
#X connect 25 0 26 0;
#X connect 26 0 183 0;
#X connect 27 0 18 0;
#X connect 28 0 21 0;
#X connect 29 0 24 0;
#X connect 30 0 31 0;
#X connect 31 0 11 0;
#X connect 32 0 30 0;
#X connect 33 0 34 0;
#X connect 34 0 11 0;
#X connect 35 0 36 0;
#X connect 36 0 11 0;
#X connect 37 0 38 0;
#X connect 38 0 39 0;
#X connect 39 0 40 0;
#X connect 39 1 41 1;
#X connect 40 0 41 0;
#X connect 41 0 42 0;
#X connect 42 0 48 0;
#X connect 42 0 97 0;
#X connect 42 1 54 0;
#X connect 42 1 98 0;
#X connect 42 2 60 0;
#X connect 42 2 99 0;
#X connect 42 3 66 0;
#X connect 42 3 100 0;
#X connect 42 4 72 0;
#X connect 42 4 101 0;
#X connect 42 5 78 0;
#X connect 42 5 102 0;
#X connect 42 6 84 0;
#X connect 42 6 103 0;
#X connect 42 7 90 0;
#X connect 42 7 104 0;
#X connect 48 0 43 0;
#X connect 48 1 44 0;
#X connect 48 2 45 0;
#X connect 48 3 46 0;
#X connect 48 4 47 0;
#X connect 54 0 49 0;
#X connect 54 1 50 0;
#X connect 54 2 51 0;
#X connect 54 3 52 0;
#X connect 54 4 53 0;
#X connect 60 0 55 0;
#X connect 60 1 56 0;
#X connect 60 2 57 0;
#X connect 60 3 58 0;
#X connect 60 4 59 0;
#X connect 66 0 61 0;
#X connect 66 1 62 0;
#X connect 66 2 63 0;
#X connect 66 3 64 0;
#X connect 66 4 65 0;
#X connect 72 0 67 0;
#X connect 72 1 68 0;
#X connect 72 2 69 0;
#X connect 72 3 70 0;
#X connect 72 4 71 0;
#X connect 78 0 73 0;
#X connect 78 1 74 0;
#X connect 78 2 75 0;
#X connect 78 3 76 0;
#X connect 78 4 77 0;
#X connect 84 0 79 0;
#X connect 84 1 80 0;
#X connect 84 2 81 0;
#X connect 84 3 82 0;
#X connect 84 4 83 0;
#X connect 90 0 85 0;
#X connect 90 1 86 0;
#X connect 90 2 87 0;
#X connect 90 3 88 0;
#X connect 90 4 89 0;
#X connect 91 0 126 0;
#X connect 92 0 129 0;
#X connect 93 0 132 0;
#X connect 94 0 135 0;
#X connect 95 0 138 0;
#X connect 96 0 91 0;
#X connect 96 1 92 0;
#X connect 96 2 93 0;
#X connect 96 3 94 0;
#X connect 96 4 95 0;
#X connect 97 0 96 0;
#X connect 98 0 96 0;
#X connect 99 0 96 0;
#X connect 100 0 96 0;
#X connect 101 0 96 0;
#X connect 102 0 96 0;
#X connect 103 0 96 0;
#X connect 104 0 96 0;
#X connect 105 0 106 0;
#X connect 105 0 107 0;
#X connect 105 0 108 0;
#X connect 105 0 109 0;
#X connect 105 0 110 0;
#X connect 105 0 111 0;
#X connect 105 0 112 0;
#X connect 105 0 113 0;
#X connect 105 0 114 0;
#X connect 106 0 97 1;
#X connect 107 0 98 1;
#X connect 108 0 99 1;
#X connect 109 0 100 1;
#X connect 110 0 101 1;
#X connect 111 0 102 1;
#X connect 112 0 103 1;
#X connect 113 0 104 1;
#X connect 116 0 117 0;
#X connect 117 0 115 0;
#X connect 118 0 119 0;
#X connect 119 0 115 0;
#X connect 120 0 121 0;
#X connect 121 0 115 0;
#X connect 122 0 123 0;
#X connect 123 0 115 0;
#X connect 124 0 125 0;
#X connect 125 0 115 0;
#X connect 126 0 127 0;
#X connect 127 0 128 0;
#X connect 128 0 184 0;
#X connect 129 0 130 0;
#X connect 130 0 131 0;
#X connect 131 0 185 0;
#X connect 132 0 133 0;
#X connect 133 0 134 0;
#X connect 134 0 186 0;
#X connect 135 0 136 0;
#X connect 136 0 137 0;
#X connect 137 0 187 0;
#X connect 138 0 139 0;
#X connect 139 0 140 0;
#X connect 140 0 188 0;
#X connect 142 0 145 0;
#X connect 143 0 142 0;
#X connect 144 0 189 0;
#X connect 145 0 144 0;
#X connect 146 0 149 0;
#X connect 147 0 146 0;
#X connect 148 0 193 0;
#X connect 149 0 148 0;
#X connect 150 0 153 0;
#X connect 151 0 150 0;
#X connect 152 0 197 0;
#X connect 153 0 152 0;
#X connect 154 0 157 0;
#X connect 155 0 154 0;
#X connect 156 0 201 0;
#X connect 157 0 156 0;
#X connect 158 0 161 0;
#X connect 159 0 158 0;
#X connect 160 0 205 0;
#X connect 161 0 160 0;
#X connect 162 0 165 0;
#X connect 163 0 162 0;
#X connect 164 0 209 0;
#X connect 165 0 164 0;
#X connect 166 0 169 0;
#X connect 167 0 166 0;
#X connect 168 0 213 0;
#X connect 169 0 168 0;
#X connect 170 0 173 0;
#X connect 171 0 170 0;
#X connect 172 0 217 0;
#X connect 173 0 172 0;
#X connect 174 0 177 0;
#X connect 175 0 174 0;
#X connect 176 0 221 0;
#X connect 177 0 176 0;
#X connect 178 0 181 0;
#X connect 179 0 178 0;
#X connect 180 0 225 0;
#X connect 181 0 180 0;
#X connect 182 0 33 0;
#X connect 183 0 35 0;
#X connect 184 0 116 0;
#X connect 185 0 118 0;
#X connect 186 0 120 0;
#X connect 187 0 122 0;
#X connect 188 0 124 0;
#X connect 189 0 190 0;
#X connect 190 0 191 0;
#X connect 191 0 192 0;
#X connect 192 0 240 0;
#X connect 193 0 194 0;
#X connect 194 0 195 0;
#X connect 195 0 196 0;
#X connect 196 0 243 0;
#X connect 197 0 198 0;
#X connect 198 0 199 0;
#X connect 199 0 200 0;
#X connect 200 0 246 0;
#X connect 201 0 202 0;
#X connect 202 0 203 0;
#X connect 203 0 204 0;
#X connect 204 0 249 0;
#X connect 205 0 206 0;
#X connect 206 0 207 0;
#X connect 207 0 208 0;
#X connect 208 0 252 0;
#X connect 209 0 210 0;
#X connect 210 0 211 0;
#X connect 211 0 212 0;
#X connect 212 0 265 0;
#X connect 213 0 214 0;
#X connect 214 0 215 0;
#X connect 215 0 216 0;
#X connect 216 0 268 0;
#X connect 217 0 218 0;
#X connect 218 0 219 0;
#X connect 219 0 220 0;
#X connect 220 0 271 0;
#X connect 221 0 222 0;
#X connect 222 0 223 0;
#X connect 223 0 224 0;
#X connect 224 0 274 0;
#X connect 225 0 226 0;
#X connect 226 0 227 0;
#X connect 227 0 228 0;
#X connect 228 0 277 0;
#X connect 230 0 231 0;
#X connect 231 0 229 0;
#X connect 232 0 233 0;
#X connect 233 0 229 0;
#X connect 234 0 235 0;
#X connect 235 0 229 0;
#X connect 236 0 237 0;
#X connect 237 0 229 0;
#X connect 238 0 239 0;
#X connect 239 0 229 0;
#X connect 240 0 241 0;
#X connect 241 0 242 0;
#X connect 242 0 280 0;
#X connect 243 0 244 0;
#X connect 244 0 245 0;
#X connect 245 0 281 0;
#X connect 246 0 247 0;
#X connect 247 0 248 0;
#X connect 248 0 282 0;
#X connect 249 0 250 0;
#X connect 250 0 251 0;
#X connect 251 0 283 0;
#X connect 252 0 253 0;
#X connect 253 0 254 0;
#X connect 254 0 284 0;
#X connect 255 0 256 0;
#X connect 256 0 229 0;
#X connect 257 0 258 0;
#X connect 258 0 229 0;
#X connect 259 0 260 0;
#X connect 260 0 229 0;
#X connect 261 0 262 0;
#X connect 262 0 229 0;
#X connect 263 0 264 0;
#X connect 264 0 229 0;
#X connect 265 0 266 0;
#X connect 266 0 267 0;
#X connect 267 0 285 0;
#X connect 268 0 269 0;
#X connect 269 0 270 0;
#X connect 270 0 286 0;
#X connect 271 0 272 0;
#X connect 272 0 273 0;
#X connect 273 0 287 0;
#X connect 274 0 275 0;
#X connect 275 0 276 0;
#X connect 276 0 288 0;
#X connect 277 0 278 0;
#X connect 278 0 279 0;
#X connect 279 0 289 0;
#X connect 280 0 230 0;
#X connect 281 0 232 0;
#X connect 282 0 234 0;
#X connect 283 0 236 0;
#X connect 284 0 238 0;
#X connect 285 0 255 0;
#X connect 286 0 257 0;
#X connect 287 0 259 0;
#X connect 288 0 261 0;
#X connect 289 0 263 0;
